<?xml version="1.0" encoding="UTF-8" standalone="no"?>
<svg
   width="1024"
   height="1024"
   viewBox="0 0 1024 1024"
   version="1.1"
   id="svg3"
   sodipodi:docname="icon.svg"
   inkscape:version="1.4.3 (0d15f75, 2025-12-25)"
   inkscape:export-filename="..\public\icons\icon-512.png"
   inkscape:export-xdpi="48"
   inkscape:export-ydpi="48"
   xmlns:inkscape="http://www.inkscape.org/namespaces/inkscape"
   xmlns:sodipodi="http://sodipodi.sourceforge.net/DTD/sodipodi-0.dtd"
   xmlns="http://www.w3.org/2000/svg"
   xmlns:svg="http://www.w3.org/2000/svg">
  <sodipodi:namedview
     id="namedview1"
     pagecolor="#ffffff"
     bordercolor="#000000"
     borderopacity="0.25"
     inkscape:showpageshadow="2"
     inkscape:pageopacity="0.0"
     inkscape:pagecheckerboard="0"
     inkscape:deskcolor="#d1d1d1"
     inkscape:zoom="0.53378276"
     inkscape:cx="305.36767"
     inkscape:cy="574.20363"
     inkscape:window-width="1920"
     inkscape:window-height="991"
     inkscape:window-x="-9"
     inkscape:window-y="-9"
     inkscape:window-maximized="1"
     inkscape:current-layer="svg3" />
  <defs
     id="defs3" />
  <path
     id="2"
     d="m 1018.751,311.16157 c 0.5803,4.92617 0.9782,129.77985 0.8849,277.45387 -0.057,89.49988 -0.113,178.99844 -0.1694,268.4983 -1.1579,4.1883 -2.3173,8.37661 -3.4753,12.56492 -10.1084,36.55123 -34.32046,62.28504 -70.04977,74.45214 -3.50164,1.1922 -7.00196,2.3843 -10.50359,3.5765 -139.1726,0.1195 -278.34517,0.2402 -417.51775,0.3597 C 228.27306,948.3165 97.613643,947.999 91.294417,947.0311 68.841668,943.5951 49.713325,933.9975 33.986821,918.27488 15.805105,900.09707 7.1173311,880.48032 5.2082932,853.2983 4.5951478,844.56457 4.2262169,717.77691 4.3890177,571.54711 4.7080628,284.3997 4.2866255,300.86408 11.787481,282.67449 19.36977,264.2853 30.978865,250.39034 48.468649,238.76286 c 19.237323,-12.78944 32.049084,-15.89323 71.299701,-17.2771 7.33018,-0.25865 14.66168,-0.5173 21.99188,-0.77597 0.009,-8.59718 0.0183,-17.19305 0.0276,-25.79026 0.0249,-23.74469 0.27572,-26.4927 3.14321,-34.61725 5.173,-14.65513 16.92783,-26.70801 31.94797,-32.75677 6.77875,-2.72963 9.50312,-3.02374 26.58985,-2.87275 44.25688,0.39259 101.78898,9.74998 144.42437,23.49 58.45906,18.83953 116.57541,51.25492 160.6905,89.62852 3.01454,2.62328 6.03037,5.24525 9.04491,7.86851 4.20669,-3.4885 8.41206,-6.97965 12.61874,-10.46815 6.94025,-5.75728 21.8895,-16.68498 33.22024,-24.28431 6.86805,-4.60583 13.73476,-9.21297 20.60279,-13.81881 0.13525,-15.16325 0.26916,-30.32781 0.40438,-45.4911 0.39653,-44.57989 0.46742,-45.62894 3.50821,-52.35387 3.629,-8.02606 12.28001,-16.48803 20.95597,-20.49777 5.9818,-2.76375 7.76085,-2.84648 69.28432,-3.2233 62.21277,-0.38076 63.25787,-0.34398 70.82178,2.48542 16.5484,6.19186 25.55654,20.71441 25.55654,41.20035 0,6.06848 0.44378,11.27433 0.98473,11.56973 0.54092,0.29543 9.84711,-0.27179 20.67893,-1.25779 32.41015,-2.95153 47.20971,-2.75852 56.12463,0.73261 9.71844,3.80625 20.39403,13.57986 25.69441,23.52413 5.29119,9.92722 6.74593,20.05268 6.77876,47.19005 0.009,7.11225 0.0171,14.22318 0.0262,21.33543 8.24533,0 16.49064,0 24.73596,0 28.92033,0 38.5101,1.83551 56.66687,10.84628 15.31826,7.602 32.48894,24.51671 40.3036,39.70229 6.4125,12.46123 10.7032,25.98461 12.1553,38.31059 z m -928.772155,2.73618 c -1.716022,3.15502 -1.920845,36.35952 -1.674024,271.67691 0.09317,89.3607 0.187772,178.72402 0.280983,268.0847 1.255173,1.31032 2.509048,2.61934 3.764221,3.92966 2.070528,2.16112 5.320068,4.56906 7.221214,5.3516 2.431591,1.00046 50.148081,1.31949 160.859881,1.07924 52.46807,-0.11426 104.93614,-0.22715 157.40418,-0.34137 -3.23247,-2.58783 -6.46495,-5.17436 -9.69742,-7.76216 -56.33734,-45.09853 -138.11173,-72.95801 -214.22075,-72.98165 -23.48998,-0.008 -42.50673,-13.4551 -49.30911,-34.87193 -0.96503,-3.03819 -1.93004,-6.07635 -2.89505,-9.11451 -0.11286,-71.85775 -0.22321,-143.71681 -0.33611,-215.57457 -0.18512,-118.56596 -0.68405,-215.92251 -1.10813,-216.34659 -0.42409,-0.42407 -9.56747,-0.90068 -20.3192,-1.05955 -21.64134,-0.31906 -26.129004,0.86787 -29.970685,7.93022 z M 235.30783,212.38176 c -3.61059,-0.30724 -7.2212,-0.61445 -10.83182,-0.92169 0,81.24009 0,162.48149 0,243.72161 0,199.79947 0.30855,243.72159 1.71603,243.72159 6.54899,0 47.6154,5.93847 59.99259,8.67597 65.61723,14.51072 127.40723,43.52428 175.27867,82.30621 3.50163,2.83596 7.00195,5.67324 10.50358,8.50922 0.27047,-2.90557 0.53961,-5.8098 0.8101,-8.71536 0.44508,-4.79358 0.6906,-112.38457 0.54486,-239.09083 -0.088,-76.79181 -0.17726,-153.58232 -0.2652,-230.37414 -3.02636,-2.79788 -6.05271,-5.59579 -9.07906,-8.39368 -32.90906,-30.42761 -78.8242,-58.43678 -122.64913,-74.81845 -32.44033,-12.12641 -74.79344,-21.96173 -106.02062,-24.62045 z m 331.8137,99.27873 c -3.92045,3.2561 -7.8383,6.51355 -11.75877,9.76966 -0.003,79.10523 -0.008,158.21047 -0.012,237.31572 -0.006,130.52296 0.43984,237.3157 0.99127,237.3157 0.55145,0 4.5402,-2.85306 8.86241,-6.33893 10.5548,-8.51318 37.9823,-27.14919 52.30395,-35.54023 49.1857,-28.81796 105.4403,-47.51831 164.81184,-54.7868 6.16955,-0.75495 12.33779,-1.51121 18.50733,-2.26614 0.23896,-1.34579 0.47792,-2.69155 0.71688,-4.03732 0.39388,-2.22021 0.5488,-110.9758 0.34399,-241.67996 -0.12343,-79.21422 -0.24815,-158.42975 -0.37157,-237.64396 -2.84515,0.0972 -5.68901,0.19564 -8.53416,0.29279 -4.6938,0.16019 -10.45502,0.63022 -12.80125,1.04381 -1.42195,0.25076 -2.84516,0.50153 -4.26709,0.75231 -0.0498,22.84796 -0.0985,45.69329 -0.14837,68.54124 -0.0814,37.69874 -0.53173,88.63069 -1.00046,113.18286 -0.95321,49.98926 -0.70243,48.64874 -11.09573,59.42412 -12.13954,12.58594 -35.06886,14.47001 -48.0697,3.95329 -2.02719,-1.63987 -7.70044,-7.70834 -12.60561,-13.48532 -10.2502,-12.06994 -21.80939,-24.28957 -22.97792,-24.28957 -0.43984,0 -8.43568,8.32672 -17.76945,18.50603 -21.43389,23.37314 -24.78715,25.4778 -40.60426,25.4778 -10.48652,0 -12.49795,-0.40176 -17.87318,-3.56072 -6.51615,-3.83118 -13.03756,-10.55218 -16.23329,-16.73225 -3.77604,-7.3013 -4.573,-21.9512 -4.59926,-84.48044 -0.0235,-56.02226 -0.2429,-62.63822 -2.04164,-61.6312 -1.10812,0.61973 -7.30656,5.52492 -13.77415,10.89751 z m 49.98922,546.01124 c -2.38564,2.00225 -4.77257,4.0045 -7.1582,6.00676 51.66322,0.11157 103.32777,0.22188 154.99099,0.33349 51.66323,0.11157 103.32777,0.22188 154.99099,0.33348 1.4797,-0.99653 2.95808,-1.99438 4.43778,-2.9909 2.44077,-1.64514 5.78091,-4.98396 7.4234,-7.42079 0.99522,-1.47706 1.99043,-2.95283 2.98565,-4.4299 -0.006,-88.01228 -0.0145,-176.02457 -0.0211,-264.03686 -0.006,-88.01229 -0.0157,-176.0246 -0.0223,-264.03686 -0.97814,-1.70553 -1.95367,-3.40973 -2.93181,-5.11527 -4.85529,-8.46984 -9.32587,-9.98366 -29.47047,-9.98366 -5.79533,0 -11.59068,0 -17.38604,0 -0.11948,72.32122 -0.23896,144.64375 -0.35845,216.96499 -0.11947,72.32122 -0.23895,144.64374 -0.35843,216.96497 -0.95846,2.53795 -1.91823,5.07587 -2.87665,7.6138 -3.78787,10.02437 -10.23182,18.81982 -18.21456,24.86729 -10.39593,7.87505 -15.16193,8.95037 -45.21271,10.18847 -30.19783,1.24468 -48.72352,3.64214 -70.89923,9.17753 -27.38419,6.83653 -49.42334,15.15802 -72.2122,27.26603 -24.32501,12.92336 -39.36221,22.9031 -57.70674,38.29743 z"
     fill="#080203"
     stroke="none"
     style="fill:#2a2a2a;fill-opacity:1;stroke:#fff8a3;stroke-width:8.70106;stroke-linecap:round;stroke-linejoin:round;stroke-dasharray:none;stroke-opacity:1;paint-order:normal" />
  <path
     id="6"
     d="m 235.30783,212.38176 c 31.22718,2.65872 73.58029,12.49404 106.02062,24.62045 43.82493,16.38167 89.74007,44.39084 122.64913,74.81845 3.02635,2.79789 6.0527,5.5958 9.07906,8.39368 0.088,76.79182 0.17723,153.58233 0.2652,230.37414 0.14574,126.70626 -0.0999,234.29725 -0.54486,239.09083 -0.27049,2.90556 -0.53963,5.80979 -0.8101,8.71536 -3.50163,-2.83598 -7.00195,-5.67326 -10.50358,-8.50922 -47.87144,-38.78193 -109.66144,-67.79549 -175.27867,-82.30621 -12.37719,-2.7375 -53.4436,-8.67597 -59.99259,-8.67597 -1.40748,0 -1.71603,-43.92212 -1.71603,-243.72159 0,-81.24012 0,-162.48152 0,-243.72161 3.61062,0.30724 7.22123,0.61445 10.83182,0.92169 z"
     fill="#FFFFFF"
     stroke="none"
     style="fill:#fff8a3;fill-opacity:1;stroke-width:1.31295" />
  <path
     id="path1"
     d="m 567.12153,311.66049 c 6.46758,-5.37259 12.66602,-10.27778 13.77414,-10.89751 1.79875,-1.00702 2.01801,5.60894 2.04166,61.6312 0.0262,62.52924 0.82322,77.17914 4.59924,84.48044 3.19573,6.18007 9.71714,12.90107 16.2333,16.73225 5.37522,3.15896 7.38666,3.56072 17.87318,3.56072 15.81711,0 19.17036,-2.10466 40.60425,-25.4778 9.33377,-10.17931 17.32963,-18.50603 17.76945,-18.50603 1.16853,0 12.72773,12.21963 22.97793,24.28957 4.90517,5.77698 10.57841,11.84545 12.60562,13.48532 13.00083,10.51672 35.93016,8.63265 48.06969,-3.95329 10.39329,-10.77538 10.14251,-9.43486 11.09574,-59.42412 0.46871,-24.55217 0.91904,-75.48412 1.00045,-113.18286 0.0498,-22.84795 0.0985,-45.69328 0.14837,-68.54124 1.42192,-0.25078 2.84516,-0.50155 4.26708,-0.75231 2.34625,-0.41359 8.10746,-0.88362 12.80126,-1.04381 2.84515,-0.0971 5.689,-0.19562 8.53417,-0.29279 0.1234,79.21421 0.24814,158.42974 0.37156,237.64396 0.20481,130.70416 0.0498,239.45975 -0.344,241.67996 -0.23894,1.34577 -0.47792,2.69153 -0.71687,4.03732 -6.16955,0.75493 -12.33779,1.51119 -18.50733,2.26614 -59.37155,7.26849 -115.62615,25.96884 -164.81184,54.7868 -14.32164,8.39104 -41.74915,27.02705 -52.30396,35.54023 -4.32221,3.48587 -8.31095,6.33893 -8.86241,6.33893 -0.55142,0 -0.99782,-106.79274 -0.99126,-237.3157 0.003,-79.10525 0.008,-158.21049 0.0119,-237.31572 3.92048,-3.25611 7.83833,-6.51356 11.75878,-9.76966 z"
     fill="#FFFFFF"
     stroke="none"
     style="fill:#fff8a3;fill-opacity:1;stroke-width:1.31295" />
  <path
     id="path2"
     d="m 617.11075,857.67173 c 18.34452,-15.39433 33.38173,-25.37407 57.70672,-38.29743 22.78886,-12.10801 44.82802,-20.4295 72.21221,-27.26603 22.1757,-5.53539 40.70139,-7.93285 70.89923,-9.17753 30.05077,-1.2381 34.81679,-2.31342 45.21271,-10.18847 7.98274,-6.04747 14.42668,-14.84292 18.21455,-24.86729 0.95844,-2.53793 1.9182,-5.07585 2.87666,-7.6138 0.11947,-72.32123 0.23895,-144.64375 0.35843,-216.96497 0.11948,-72.32124 0.23896,-144.64377 0.35844,-216.96499 5.79537,0 11.59072,0 17.38608,0 20.14456,0 24.61514,1.51382 29.47044,9.98366 0.97814,1.70554 1.95366,3.40974 2.93181,5.11527 0.006,88.01226 0.0157,176.02457 0.0223,264.03686 0.006,88.01229 0.0144,176.02458 0.0211,264.03686 -0.99522,1.47707 -1.99043,2.95284 -2.98565,4.4299 -1.64249,2.43683 -4.98264,5.77565 -7.4234,7.42079 -1.4797,0.99652 -2.95808,1.99437 -4.43779,2.9909 -51.66322,-0.11157 -103.32775,-0.22187 -154.99099,-0.33348 -51.66321,-0.11159 -103.32777,-0.22189 -154.99099,-0.33349 2.38564,-2.00226 4.77259,-4.00451 7.1582,-6.00676 z"
     fill="#FFFFFF"
     stroke="none"
     style="fill:#fff8a3;fill-opacity:1;stroke-width:1.31295" />
  <path
     id="path3"
     d="m 89.978845,313.89775 c 3.841681,-7.06235 8.329345,-8.24928 29.970685,-7.93022 10.75173,0.15887 19.89511,0.63548 20.3192,1.05955 0.42408,0.42408 0.92301,97.78063 1.10813,216.34659 0.11285,71.85776 0.22319,143.71682 0.33611,215.57457 0.96501,3.03816 1.93002,6.07632 2.89505,9.11451 6.80238,21.41683 25.81913,34.86405 49.30911,34.87193 76.10902,0.0236 157.88341,27.88312 214.22075,72.98165 3.23247,2.5878 6.46495,5.17433 9.69742,7.76216 -52.46804,0.11424 -104.93611,0.22714 -157.40418,0.34137 -110.7118,0.24025 -158.42829,-0.0788 -160.859881,-1.07924 -1.901146,-0.78254 -5.150686,-3.19048 -7.221214,-5.3516 -1.255173,-1.31032 -2.509048,-2.61934 -3.764221,-3.92966 -0.09317,-89.36068 -0.187762,-178.724 -0.280983,-268.0847 C 88.058,350.25727 88.262904,317.05277 89.978845,313.89775 Z"
     fill="#FFFFFF"
     stroke="none"
     style="fill:#fff8a3;fill-opacity:1;stroke-width:1.31295" />
</svg>
